<svg width="69" height="68" viewBox="0 0 69 68" fill="none" xmlns="http://www.w3.org/2000/svg">
<path d="M26.4007 45.0088C12.5648 45.0088 0.746765 52.1899 0.746765 60.9144C0.746765 69.6421 12.491 66.9002 26.4007 66.9002C40.2365 66.9002 52.0546 69.7223 52.0546 60.9946C52.0546 52.2669 40.3135 45.0088 26.4007 45.0088Z" fill="#DFE6F7"/>
<path d="M26.6148 42.1207C36.0397 42.1207 43.5912 34.5669 43.5912 25.1464C43.5912 15.7259 36.0397 8.17212 26.6148 8.17212C17.1931 8.17212 9.63837 15.7259 9.63837 25.1464C9.63837 34.5669 17.1931 42.1207 26.6148 42.1207Z" fill="#556E97"/>
<path d="M10.1538 8.0494C8.23074 4.71606 10.6365 0.550781 14.4847 0.550781H39.0881C42.9364 0.550781 45.3422 4.71606 43.4191 8.04939L39.6616 14.5623C38.7687 16.1101 37.1176 17.0637 35.3307 17.0637H18.2422C16.4553 17.0637 14.8042 16.1101 13.9113 14.5623L10.1538 8.0494Z" fill="#DFE6F7"/>
<path d="M30.8237 8.11372C31.0374 8.32741 31.1574 8.61724 31.1574 8.91945C31.1574 9.22165 31.0374 9.51148 30.8237 9.72517C30.61 9.93886 30.3202 10.0589 30.018 10.0589H27.739V12.3379C27.739 12.6401 27.619 12.9299 27.4053 13.1436C27.1916 13.3573 26.9018 13.4773 26.5996 13.4773C26.2974 13.4773 26.0075 13.3573 25.7938 13.1436C25.5801 12.9299 25.4601 12.6401 25.4601 12.3379V10.0589H23.1812C22.8789 10.0589 22.5891 9.93886 22.3754 9.72517C22.1617 9.51148 22.0417 9.22165 22.0417 8.91945C22.0417 8.61724 22.1617 8.32741 22.3754 8.11372C22.5891 7.90003 22.8789 7.77998 23.1812 7.77998H25.4601V5.50104C25.4601 5.19884 25.5801 4.90901 25.7938 4.69532C26.0075 4.48162 26.2974 4.36157 26.5996 4.36157C26.9018 4.36157 27.1916 4.48162 27.4053 4.69532C27.619 4.90901 27.739 5.19884 27.739 5.50104V7.77998H30.018C30.3202 7.77998 30.61 7.90003 30.8237 8.11372Z" fill="white"/>
<path d="M58.3153 37.4978H47.6695C43.808 37.4978 41.5597 39.7588 41.5597 43.633V56.7545C41.5597 60.6922 43.808 62.9024 47.6695 62.9024H58.3153C62.239 62.9024 64.4238 60.6922 64.4238 56.7545V43.633C64.4238 39.7588 62.239 37.4978 58.3153 37.4978Z" fill="#293858"/>
<path fill-rule="evenodd" clip-rule="evenodd" d="M48.0124 51.14H57.971C58.5172 51.14 58.9618 50.6955 58.9618 50.1493C58.9618 49.6031 58.5172 49.1572 57.971 49.1572H48.0124C47.465 49.1572 47.0217 49.6031 47.0217 50.1493C47.0217 50.6955 47.465 51.14 48.0124 51.14ZM48.0124 56.945H57.971C58.4779 56.8942 58.8602 56.461 58.8602 55.9542C58.8602 55.4334 58.4779 55.0015 57.971 54.9507H48.0124C47.6314 54.9126 47.263 55.0904 47.0598 55.4207C46.8565 55.7382 46.8565 56.1574 47.0598 56.4877C47.263 56.8052 47.6314 56.9958 48.0124 56.945Z" fill="#A1B3D7"/>
<path fill-rule="evenodd" clip-rule="evenodd" d="M53.4888 44.4565C53.4888 43.9075 53.9339 43.4624 54.4829 43.4624H57.7966C58.3456 43.4624 58.7906 43.9075 58.7906 44.4565C58.7906 45.0055 58.3456 45.4506 57.7966 45.4506H54.4829C53.9339 45.4506 53.4888 45.0055 53.4888 44.4565Z" fill="#A1B3D7"/>
<path fill-rule="evenodd" clip-rule="evenodd" d="M51.4019 42.6172C51.6072 42.8156 51.6072 43.1373 51.4019 43.3357L48.5111 46.1302C48.4117 46.2263 48.2766 46.2799 48.1361 46.2791C47.9955 46.2782 47.8612 46.223 47.7631 46.1257L46.6242 44.9966C46.4216 44.7957 46.4258 44.474 46.6337 44.2781C46.8415 44.0822 47.1743 44.0863 47.3769 44.2872L48.1441 45.0478L50.6586 42.6172C50.8639 42.4188 51.1967 42.4188 51.4019 42.6172Z" fill="white" stroke="white" stroke-width="0.5" stroke-linecap="round" stroke-linejoin="round"/>
<rect x="37.629" y="28.0291" width="30.3942" height="38.113" rx="5" fill="#2A3959"/>
<rect x="45.4565" y="26.3914" width="14.7389" height="6.34597" rx="3" fill="#7386AF"/>
<path d="M55.4104 59.3684H48.6235C48.02 59.3684 47.5292 59.9345 47.5292 60.6305C47.5292 61.3279 48.02 61.8926 48.6235 61.8926H55.4104C56.0139 61.8926 56.5047 61.3279 56.5047 60.6305C56.5047 59.9345 56.0139 59.3684 55.4104 59.3684Z" fill="#7386AF"/>
<path d="M60.1621 54.6512H48.6236C48.0201 54.6512 47.5293 55.2173 47.5293 55.9133C47.5293 56.6107 48.0201 57.1755 48.6236 57.1755H60.1621C60.7656 57.1755 61.2564 56.6107 61.2564 55.9133C61.2564 55.2173 60.7656 54.6512 60.1621 54.6512Z" fill="#7386AF"/>
<rect x="42.1006" y="54.1152" width="3.35569" height="3.35569" rx="1.67785" fill="#7083AC"/>
<rect x="42.1006" y="59.0775" width="3.35569" height="3.35569" rx="1.67785" fill="#7083AC"/>
<circle cx="52.0506" cy="43.6941" r="6.42921" fill="#A5B7DA"/>
<path d="M52.8259 43.694H62.3973M62.3973 43.694L59.6626 40.8002M62.3973 43.694L59.6626 46.5879" stroke="white" stroke-width="2" stroke-linecap="round" stroke-linejoin="round"/>
</svg>
